# xmcd
#
# Track frame offsets: 
#        150
#        13956
#        25267
#        37967
#        50887
#        64484
#        78375
#        92578
#        102625
#        112568
#        126845
#        141191
#        153884
#        165832
#        176489
#        187907
#        201916
#        213871
#        226554
#        240962
#        254408
#        270281
#        281835
#        295680
#        308007
#        317890
#
# Disc length: 4399 seconds
#
# Revision: 0
# Processed by: cddbd v1.5.2PL0 Copyright (c) Steve Scherf et al.
# Submitted via: ExactAudioCopy v0.99pb5
#
DISCID=5c112d1a
DTITLE=Various Artist - Every Shade Of The Blues CD2
DYEAR=2008
DGENRE=Blues
TTITLE0=Howlin' Wolf - Smokestack Lightning
TTITLE1=John Lee Hooker - Boom Boom
TTITLE2=Lloyd Price - Just Because
TTITLE3=Willie Mae 'Big Mama' Thornton - Hound Dog
TTITLE4=Johnny Ace With The Beale Streeters - My Song
TTITLE5=Slim Harpo - I'm A King Bee
TTITLE6=Charle Brown and His Band - Black Night
TTITLE7=Elvis Presley - My Baby Left Me
TTITLE8=Ray Charles - I Want To Know
TTITLE9=Bo Diddeley - Down Home Special
TTITLE10=Willie Maboon and His Combo - I Don't Know
TTITLE11=Big Joe Williams - Baby Please Don't Go
TTITLE12=Ruth Brown - I'll Get Along Somehow
TTITLE13=Elmore James - Take Me Where You Go
TTITLE14=Clyde McPhatter and The Drifters - Such A Night
TTITLE15=Chuck Berry and His Combo - Wee Wee Hours
TTITLE16=Champion Jack Dupree - Bad Whiskey And Bad Woman
TTITLE17=Smiley Lewis and His Sextet - Lowdown
TTITLE18=Lionel Hampton and His Orchestra - Hey! Ba-Ba-Re-Bop
TTITLE19=Big Maceo - County Jail Blues
TTITLE20=Bessie Smith - Gimme A Pigfoot
TTITLE21=Roy Byrd and His Blues Jumpers - Bald Head
TTITLE22=Guitar Slim and His Band - The Story Of My Life
TTITLE23=Ivory Joe Hunter - Empty Arms
TTITLE24=Magic Slim - Love Me With A Feeling
TTITLE25=Jimmy Reed - Honest I Do
EXTD=
EXTT0=
EXTT1=
EXTT2=
EXTT3=
EXTT4=
EXTT5=
EXTT6=
EXTT7=
EXTT8=
EXTT9=
EXTT10=
EXTT11=
EXTT12=
EXTT13=
EXTT14=
EXTT15=
EXTT16=
EXTT17=
EXTT18=
EXTT19=
EXTT20=
EXTT21=
EXTT22=
EXTT23=
EXTT24=
EXTT25=
PLAYORDER=
